<?xml version="1.0" standalone="no"?>
<!DOCTYPE svg PUBLIC "-//W3C//DTD SVG 20010904//EN"
 "http://www.w3.org/TR/2001/REC-SVG-20010904/DTD/svg10.dtd">
<svg version="1.0" xmlns="http://www.w3.org/2000/svg"
 width="30.000000pt" height="30.000000pt" viewBox="0 0 30.000000 30.000000"
 preserveAspectRatio="xMidYMid meet">

<g transform="translate(0.000000,30.000000) scale(0.100000,-0.100000)"
fill="#000000" stroke="none">
<path d="M49 263 c-1 -5 0 -23 1 -42 1 -18 -4 -37 -11 -41 -7 -5 29 -11 79
-15 51 -4 92 -11 92 -15 0 -4 -41 -11 -92 -15 -50 -4 -86 -10 -79 -15 7 -4 12
-23 11 -41 -1 -19 -2 -37 -1 -42 1 -11 221 101 221 113 0 12 -220 124 -221
113z"/>
</g>
</svg>
